<svg width="95" height="95" viewBox="0 0 95 95" fill="none" xmlns="http://www.w3.org/2000/svg">
<path fill-rule="evenodd" clip-rule="evenodd" d="M79.1643 59.6481L56.3906 57.0635C54.5039 56.8494 53.2398 55.1333 53.567 53.2305C53.8943 51.3277 55.6889 49.9588 57.5756 50.1729L75.7945 52.2406L73.7269 34.0216C73.5884 32.8012 74.117 31.5605 75.1138 30.767C76.1105 29.9734 77.4239 29.7476 78.5591 30.1745C79.6943 30.6013 80.479 31.6161 80.6175 32.8366L83.2021 55.6103C83.3241 56.6855 82.9285 57.7858 82.1341 58.5801C81.3398 59.3745 80.2395 59.7701 79.1643 59.6481ZM7.27837 51.0214C24.3562 33.9419 51.2098 33.0184 67.452 48.9522L73.1531 49.5991L72.5078 43.9132C53.6516 25.3212 22.3833 26.3728 2.52369 46.2667C1.12992 47.6605 1.06442 49.8548 2.37739 51.1677C3.69036 52.4807 5.8846 52.4152 7.27837 51.0214Z" fill="#EBB861"/>
</svg>
