<svg width="95" height="95" viewBox="0 0 95 95" fill="none" xmlns="http://www.w3.org/2000/svg">
<path fill-rule="evenodd" clip-rule="evenodd" d="M15.588 59.6481L38.3618 57.0635C40.2484 56.8494 41.5125 55.1333 41.1853 53.2305C40.8581 51.3277 39.0634 49.9588 37.1767 50.1729L18.9578 52.2406L21.0254 34.0216C21.164 32.8012 20.6353 31.5605 19.6385 30.767C18.6418 29.9734 17.3285 29.7476 16.1932 30.1745C15.058 30.6013 14.2733 31.6161 14.1348 32.8366L11.5502 55.6103C11.4282 56.6855 11.8239 57.7858 12.6182 58.5801C13.4125 59.3745 14.5128 59.7701 15.588 59.6481ZM87.4739 51.0214C70.3961 33.9419 43.5425 33.0184 27.3004 48.9522L21.5992 49.5991L22.2446 43.9132C41.1008 25.3212 72.369 26.3728 92.2286 46.2667C93.6224 47.6605 93.6879 49.8548 92.3749 51.1677C91.062 52.4807 88.8677 52.4152 87.4739 51.0214Z" fill="#EBB861"/>
</svg>
