<svg width="114" height="81" viewBox="0 0 114 81" fill="none" xmlns="http://www.w3.org/2000/svg">
<path fill-rule="evenodd" clip-rule="evenodd" d="M48.3 79.6552L34.0241 61.7241C32.8415 60.2387 33.1611 58.1313 34.7379 57.0172C36.3148 55.9031 38.5518 56.2042 39.7345 57.6897L51.1552 72.0345L62.5758 57.6897C63.3409 56.7287 64.592 56.2253 65.8579 56.369C67.1238 56.5126 68.2122 57.2816 68.7131 58.3862C69.214 59.4908 69.0512 60.7632 68.2862 61.7241L54.0103 79.6552C53.3363 80.5017 52.2785 81 51.1552 81C50.0318 81 48.974 80.5017 48.3 79.6552ZM3.56896 22.7242C27.7219 22.7229 47.3632 41.0583 47.5813 63.8102L51.1552 68.2989L54.7194 63.8221C54.5325 37.3422 31.679 15.9757 3.56896 16C1.59788 16 0 17.5053 0 19.3621C0 21.2189 1.59788 22.7242 3.56896 22.7242Z" fill="#EBB861"/>
<path fill-rule="evenodd" clip-rule="evenodd" d="M93.3 63.6552L79.0241 45.7241C77.8415 44.2387 78.1611 42.1313 79.7379 41.0172C81.3148 39.9031 83.5518 40.2042 84.7345 41.6897L96.1552 56.0345L107.576 41.6897C108.341 40.7287 109.592 40.2253 110.858 40.369C112.124 40.5126 113.212 41.2816 113.713 42.3862C114.214 43.4908 114.051 44.7632 113.286 45.7241L99.0103 63.6552C98.3363 64.5017 97.2785 65 96.1552 65C95.0318 65 93.974 64.5017 93.3 63.6552ZM48.569 6.72415C72.7219 6.72292 92.3632 25.0583 92.5813 47.8102L96.1552 52.2989L99.7194 47.8221C99.5325 21.3422 76.679 -0.0242967 48.569 2.07364e-05C46.5979 2.07364e-05 45 1.50527 45 3.36209C45 5.21891 46.5979 6.72415 48.569 6.72415Z" fill="#EBB861"/>
</svg>
