<svg xmlns="http://www.w3.org/2000/svg" width="256" height="256" viewBox="0 0 100 100"><rect width="100" height="100" rx="20" fill="#e98e22"></rect><path d="M17.52 55.92L17.52 74.16Q17.04 74.32 16.24 74.52Q15.44 74.72 14.48 74.72L14.48 74.72Q10.96 74.72 10.96 71.76L10.96 71.76L10.96 29.20Q10.96 27.92 11.60 27.24Q12.24 26.56 13.60 26.16L13.60 26.16Q15.92 25.44 19.32 25.12Q22.72 24.80 25.92 24.80L25.92 24.80Q36.00 24.80 40.92 28.84Q45.84 32.88 45.84 40.32L45.84 40.32Q45.84 45.84 43.00 49.60Q40.16 53.36 34.40 54.96L34.40 54.96Q36.40 57.52 38.40 60.08Q40.40 62.64 42.20 64.92Q44.00 67.20 45.40 69.04Q46.80 70.88 47.60 71.92L47.60 71.92Q47.28 73.28 46.20 74.08Q45.12 74.88 44.00 74.88L44.00 74.88Q42.64 74.88 41.76 74.24Q40.88 73.60 39.92 72.24L39.92 72.24L28.24 55.92L17.52 55.92ZM17.44 50.48L26.64 50.48Q32.56 50.48 35.92 47.92Q39.28 45.36 39.28 40.32L39.28 40.32Q39.28 35.28 35.76 32.76Q32.24 30.24 25.68 30.24L25.68 30.24Q23.52 30.24 21.32 30.44Q19.12 30.64 17.44 30.96L17.44 30.96L17.44 50.48ZM71.52 69.92L71.52 69.92Q76.88 69.92 79.64 67.48Q82.40 65.04 82.40 61.20L82.40 61.20Q82.40 57.84 80.28 55.76Q78.16 53.68 73.60 52.32L73.60 52.32L66.64 50.24Q61.52 48.72 58.60 45.76Q55.68 42.80 55.68 37.76L55.68 37.76Q55.68 34.72 56.84 32.28Q58.00 29.84 60.16 28.16Q62.32 26.48 65.32 25.56Q68.32 24.64 72.08 24.64L72.08 24.64Q75.28 24.64 78.04 25.16Q80.80 25.68 82.84 26.60Q84.88 27.52 86 28.64Q87.12 29.76 87.12 30.96L87.12 30.96Q87.12 32.08 86.56 32.88Q86 33.68 85.12 34.16L85.12 34.16Q83.04 32.56 79.72 31.36Q76.40 30.16 72.32 30.16L72.32 30.16Q67.60 30.16 64.92 32.16Q62.24 34.16 62.24 37.76L62.24 37.76Q62.24 40.56 64.16 42.32Q66.08 44.08 70.56 45.36L70.56 45.36L75.44 46.80Q81.76 48.64 85.40 51.96Q89.04 55.28 89.04 61.20L89.04 61.20Q89.04 67.52 84.48 71.44Q79.92 75.36 71.52 75.36L71.52 75.36Q67.84 75.36 64.84 74.72Q61.84 74.08 59.72 73.04Q57.60 72 56.44 70.76Q55.28 69.52 55.28 68.32L55.28 68.32Q55.28 66.96 56.12 66.04Q56.96 65.12 58.08 64.72L58.08 64.72Q58.96 65.60 60.24 66.52Q61.52 67.44 63.20 68.20Q64.88 68.96 66.96 69.44Q69.04 69.92 71.52 69.92Z" fill="#071868"></path></svg>