<svg id="visual" viewBox="0 0 900 600" width="900" height="600" xmlns="http://www.w3.org/2000/svg" xmlns:xlink="http://www.w3.org/1999/xlink" version="1.1"><rect x="0" y="0" width="900" height="600" fill="#EEEBE5"></rect><path d="M0 430L13.7 434.5C27.3 439 54.7 448 82 456.2C109.3 464.3 136.7 471.7 163.8 471.3C191 471 218 463 245.2 459C272.3 455 299.7 455 327 458.2C354.3 461.3 381.7 467.7 409 465.3C436.3 463 463.7 452 491 447.5C518.3 443 545.7 445 573 450.3C600.3 455.7 627.7 464.3 654.8 462.3C682 460.3 709 447.7 736.2 443.3C763.3 439 790.7 443 818 442.5C845.3 442 872.7 437 886.3 434.5L900 432L900 601L886.3 601C872.7 601 845.3 601 818 601C790.7 601 763.3 601 736.2 601C709 601 682 601 654.8 601C627.7 601 600.3 601 573 601C545.7 601 518.3 601 491 601C463.7 601 436.3 601 409 601C381.7 601 354.3 601 327 601C299.7 601 272.3 601 245.2 601C218 601 191 601 163.8 601C136.7 601 109.3 601 82 601C54.7 601 27.3 601 13.7 601L0 601Z" fill="#e9d5fd"></path><path d="M0 465L13.7 464.5C27.3 464 54.7 463 82 460.3C109.3 457.7 136.7 453.3 163.8 456.3C191 459.3 218 469.7 245.2 473.7C272.3 477.7 299.7 475.3 327 475C354.3 474.7 381.7 476.3 409 477.2C436.3 478 463.7 478 491 478.5C518.3 479 545.7 480 573 479.8C600.3 479.7 627.7 478.3 654.8 478.7C682 479 709 481 736.2 479.5C763.3 478 790.7 473 818 471.8C845.3 470.7 872.7 473.3 886.3 474.7L900 476L900 601L886.3 601C872.7 601 845.3 601 818 601C790.7 601 763.3 601 736.2 601C709 601 682 601 654.8 601C627.7 601 600.3 601 573 601C545.7 601 518.3 601 491 601C463.7 601 436.3 601 409 601C381.7 601 354.3 601 327 601C299.7 601 272.3 601 245.2 601C218 601 191 601 163.8 601C136.7 601 109.3 601 82 601C54.7 601 27.3 601 13.7 601L0 601Z" fill="#f3cbef"></path><path d="M0 516L13.7 514C27.3 512 54.7 508 82 502.8C109.3 497.7 136.7 491.3 163.8 486.3C191 481.3 218 477.7 245.2 482.3C272.3 487 299.7 500 327 503.3C354.3 506.7 381.7 500.3 409 498.8C436.3 497.3 463.7 500.7 491 498.2C518.3 495.7 545.7 487.3 573 487.3C600.3 487.3 627.7 495.7 654.8 498.3C682 501 709 498 736.2 495.3C763.3 492.7 790.7 490.3 818 487.3C845.3 484.3 872.7 480.7 886.3 478.8L900 477L900 601L886.3 601C872.7 601 845.3 601 818 601C790.7 601 763.3 601 736.2 601C709 601 682 601 654.8 601C627.7 601 600.3 601 573 601C545.7 601 518.3 601 491 601C463.7 601 436.3 601 409 601C381.7 601 354.3 601 327 601C299.7 601 272.3 601 245.2 601C218 601 191 601 163.8 601C136.7 601 109.3 601 82 601C54.7 601 27.3 601 13.7 601L0 601Z" fill="#fbc1de"></path><path d="M0 517L13.7 515.5C27.3 514 54.7 511 82 507.2C109.3 503.3 136.7 498.7 163.8 497.7C191 496.7 218 499.3 245.2 498.8C272.3 498.3 299.7 494.7 327 498C354.3 501.3 381.7 511.7 409 514.2C436.3 516.7 463.7 511.3 491 508.8C518.3 506.3 545.7 506.7 573 505.3C600.3 504 627.7 501 654.8 501.5C682 502 709 506 736.2 510.5C763.3 515 790.7 520 818 518.7C845.3 517.3 872.7 509.7 886.3 505.8L900 502L900 601L886.3 601C872.7 601 845.3 601 818 601C790.7 601 763.3 601 736.2 601C709 601 682 601 654.8 601C627.7 601 600.3 601 573 601C545.7 601 518.3 601 491 601C463.7 601 436.3 601 409 601C381.7 601 354.3 601 327 601C299.7 601 272.3 601 245.2 601C218 601 191 601 163.8 601C136.7 601 109.3 601 82 601C54.7 601 27.3 601 13.7 601L0 601Z" fill="#ffb8c9"></path><path d="M0 513L13.7 517C27.3 521 54.7 529 82 528.5C109.3 528 136.7 519 163.8 515C191 511 218 512 245.2 513.3C272.3 514.7 299.7 516.3 327 516.8C354.3 517.3 381.7 516.7 409 516.5C436.3 516.3 463.7 516.7 491 515.5C518.3 514.3 545.7 511.7 573 511.7C600.3 511.7 627.7 514.3 654.8 516.8C682 519.3 709 521.7 736.2 521.3C763.3 521 790.7 518 818 515.2C845.3 512.3 872.7 509.7 886.3 508.3L900 507L900 601L886.3 601C872.7 601 845.3 601 818 601C790.7 601 763.3 601 736.2 601C709 601 682 601 654.8 601C627.7 601 600.3 601 573 601C545.7 601 518.3 601 491 601C463.7 601 436.3 601 409 601C381.7 601 354.3 601 327 601C299.7 601 272.3 601 245.2 601C218 601 191 601 163.8 601C136.7 601 109.3 601 82 601C54.7 601 27.3 601 13.7 601L0 601Z" fill="#ffb2b2"></path><path d="M0 536L13.7 537.7C27.3 539.3 54.7 542.7 82 545.3C109.3 548 136.7 550 163.8 551.2C191 552.3 218 552.7 245.2 553C272.3 553.3 299.7 553.7 327 551.3C354.3 549 381.7 544 409 542.2C436.3 540.3 463.7 541.7 491 539.7C518.3 537.7 545.7 532.3 573 533.2C600.3 534 627.7 541 654.8 541.5C682 542 709 536 736.2 534.5C763.3 533 790.7 536 818 535.3C845.3 534.7 872.7 530.3 886.3 528.2L900 526L900 601L886.3 601C872.7 601 845.3 601 818 601C790.7 601 763.3 601 736.2 601C709 601 682 601 654.8 601C627.7 601 600.3 601 573 601C545.7 601 518.3 601 491 601C463.7 601 436.3 601 409 601C381.7 601 354.3 601 327 601C299.7 601 272.3 601 245.2 601C218 601 191 601 163.8 601C136.7 601 109.3 601 82 601C54.7 601 27.3 601 13.7 601L0 601Z" fill="#ffb097"></path><path d="M0 561L13.7 560C27.3 559 54.7 557 82 558C109.3 559 136.7 563 163.8 563C191 563 218 559 245.2 557.2C272.3 555.3 299.7 555.7 327 554.2C354.3 552.7 381.7 549.3 409 551.2C436.3 553 463.7 560 491 563C518.3 566 545.7 565 573 564.2C600.3 563.3 627.7 562.7 654.8 559.7C682 556.7 709 551.3 736.2 550.5C763.3 549.7 790.7 553.3 818 556.3C845.3 559.3 872.7 561.7 886.3 562.8L900 564L900 601L886.3 601C872.7 601 845.3 601 818 601C790.7 601 763.3 601 736.2 601C709 601 682 601 654.8 601C627.7 601 600.3 601 573 601C545.7 601 518.3 601 491 601C463.7 601 436.3 601 409 601C381.7 601 354.3 601 327 601C299.7 601 272.3 601 245.2 601C218 601 191 601 163.8 601C136.7 601 109.3 601 82 601C54.7 601 27.3 601 13.7 601L0 601Z" fill="#feb27b"></path><path d="M0 572L13.7 571.8C27.3 571.7 54.7 571.3 82 572.5C109.3 573.7 136.7 576.3 163.8 576.5C191 576.7 218 574.3 245.2 573.2C272.3 572 299.7 572 327 572C354.3 572 381.7 572 409 572.2C436.3 572.3 463.7 572.7 491 572.3C518.3 572 545.7 571 573 571.7C600.3 572.3 627.7 574.7 654.8 574.8C682 575 709 573 736.2 572.3C763.3 571.7 790.7 572.3 818 571.3C845.3 570.3 872.7 567.7 886.3 566.3L900 565L900 601L886.3 601C872.7 601 845.3 601 818 601C790.7 601 763.3 601 736.2 601C709 601 682 601 654.8 601C627.7 601 600.3 601 573 601C545.7 601 518.3 601 491 601C463.7 601 436.3 601 409 601C381.7 601 354.3 601 327 601C299.7 601 272.3 601 245.2 601C218 601 191 601 163.8 601C136.7 601 109.3 601 82 601C54.7 601 27.3 601 13.7 601L0 601Z" fill="#ebb861"></path></svg>