<svg id="visual" viewBox="0 0 900 600" width="900" height="600" xmlns="http://www.w3.org/2000/svg" xmlns:xlink="http://www.w3.org/1999/xlink" version="1.1"><rect x="0" y="0" width="900" height="600" fill="#EEEBE5"></rect><path d="M546 0L512.7 14.3C479.3 28.7 412.7 57.3 406.7 85.8C400.7 114.3 455.3 142.7 488 171.2C520.7 199.7 531.3 228.3 505.3 257C479.3 285.7 416.7 314.3 402.2 343C387.7 371.7 421.3 400.3 433.5 428.8C445.7 457.3 436.3 485.7 442 514.2C447.7 542.7 468.3 571.3 478.7 585.7L489 600L0 600L0 585.7C0 571.3 0 542.7 0 514.2C0 485.7 0 457.3 0 428.8C0 400.3 0 371.7 0 343C0 314.3 0 285.7 0 257C0 228.3 0 199.7 0 171.2C0 142.7 0 114.3 0 85.8C0 57.3 0 28.7 0 14.3L0 0Z" fill="#e9d5fd"></path><path d="M399 0L388.8 14.3C378.7 28.7 358.3 57.3 340 85.8C321.7 114.3 305.3 142.7 299 171.2C292.7 199.7 296.3 228.3 301.3 257C306.3 285.7 312.7 314.3 325.7 343C338.7 371.7 358.3 400.3 369 428.8C379.7 457.3 381.3 485.7 367.5 514.2C353.7 542.7 324.3 571.3 309.7 585.7L295 600L0 600L0 585.7C0 571.3 0 542.7 0 514.2C0 485.7 0 457.3 0 428.8C0 400.3 0 371.7 0 343C0 314.3 0 285.7 0 257C0 228.3 0 199.7 0 171.2C0 142.7 0 114.3 0 85.8C0 57.3 0 28.7 0 14.3L0 0Z" fill="#f9c3e3"></path><path d="M290 0L275.2 14.3C260.3 28.7 230.7 57.3 234.3 85.8C238 114.3 275 142.7 289.2 171.2C303.3 199.7 294.7 228.3 274.7 257C254.7 285.7 223.3 314.3 216.3 343C209.3 371.7 226.7 400.3 246.2 428.8C265.7 457.3 287.3 485.7 281.2 514.2C275 542.7 241 571.3 224 585.7L207 600L0 600L0 585.7C0 571.3 0 542.7 0 514.2C0 485.7 0 457.3 0 428.8C0 400.3 0 371.7 0 343C0 314.3 0 285.7 0 257C0 228.3 0 199.7 0 171.2C0 142.7 0 114.3 0 85.8C0 57.3 0 28.7 0 14.3L0 0Z" fill="#ffb5be"></path><path d="M250 0L230.8 14.3C211.7 28.7 173.3 57.3 154.3 85.8C135.3 114.3 135.7 142.7 150.3 171.2C165 199.7 194 228.3 214.3 257C234.7 285.7 246.3 314.3 234.8 343C223.3 371.7 188.7 400.3 169 428.8C149.3 457.3 144.7 485.7 153 514.2C161.3 542.7 182.7 571.3 193.3 585.7L204 600L0 600L0 585.7C0 571.3 0 542.7 0 514.2C0 485.7 0 457.3 0 428.8C0 400.3 0 371.7 0 343C0 314.3 0 285.7 0 257C0 228.3 0 199.7 0 171.2C0 142.7 0 114.3 0 85.8C0 57.3 0 28.7 0 14.3L0 0Z" fill="#ffb090"></path><path d="M147 0L139.2 14.3C131.3 28.7 115.7 57.3 101 85.8C86.3 114.3 72.7 142.7 73.2 171.2C73.7 199.7 88.3 228.3 104.3 257C120.3 285.7 137.7 314.3 148.3 343C159 371.7 163 400.3 149.5 428.8C136 457.3 105 485.7 97.2 514.2C89.3 542.7 104.7 571.3 112.3 585.7L120 600L0 600L0 585.7C0 571.3 0 542.7 0 514.2C0 485.7 0 457.3 0 428.8C0 400.3 0 371.7 0 343C0 314.3 0 285.7 0 257C0 228.3 0 199.7 0 171.2C0 142.7 0 114.3 0 85.8C0 57.3 0 28.7 0 14.3L0 0Z" fill="#ebb861"></path></svg>