<svg id="visual" viewBox="0 0 900 600" width="900" height="600" xmlns="http://www.w3.org/2000/svg" xmlns:xlink="http://www.w3.org/1999/xlink" version="1.1"><rect x="0" y="0" width="900" height="600" fill="#EEEBE5"></rect><path d="M0 455L13.7 459.7C27.3 464.3 54.7 473.7 82 471.7C109.3 469.7 136.7 456.3 163.8 455.7C191 455 218 467 245.2 470C272.3 473 299.7 467 327 466C354.3 465 381.7 469 409 470.7C436.3 472.3 463.7 471.7 491 467.2C518.3 462.7 545.7 454.3 573 454.8C600.3 455.3 627.7 464.7 654.8 471.2C682 477.7 709 481.3 736.2 479.5C763.3 477.7 790.7 470.3 818 467.5C845.3 464.7 872.7 466.3 886.3 467.2L900 468L900 601L886.3 601C872.7 601 845.3 601 818 601C790.7 601 763.3 601 736.2 601C709 601 682 601 654.8 601C627.7 601 600.3 601 573 601C545.7 601 518.3 601 491 601C463.7 601 436.3 601 409 601C381.7 601 354.3 601 327 601C299.7 601 272.3 601 245.2 601C218 601 191 601 163.8 601C136.7 601 109.3 601 82 601C54.7 601 27.3 601 13.7 601L0 601Z" fill="#e9d5fd"></path><path d="M0 473L13.7 472C27.3 471 54.7 469 82 467.8C109.3 466.7 136.7 466.3 163.8 472C191 477.7 218 489.3 245.2 489.3C272.3 489.3 299.7 477.7 327 477.7C354.3 477.7 381.7 489.3 409 495.3C436.3 501.3 463.7 501.7 491 493.8C518.3 486 545.7 470 573 465.8C600.3 461.7 627.7 469.3 654.8 471.3C682 473.3 709 469.7 736.2 470.3C763.3 471 790.7 476 818 473.5C845.3 471 872.7 461 886.3 456L900 451L900 601L886.3 601C872.7 601 845.3 601 818 601C790.7 601 763.3 601 736.2 601C709 601 682 601 654.8 601C627.7 601 600.3 601 573 601C545.7 601 518.3 601 491 601C463.7 601 436.3 601 409 601C381.7 601 354.3 601 327 601C299.7 601 272.3 601 245.2 601C218 601 191 601 163.8 601C136.7 601 109.3 601 82 601C54.7 601 27.3 601 13.7 601L0 601Z" fill="#f3cbef"></path><path d="M0 490L13.7 488.3C27.3 486.7 54.7 483.3 82 487.5C109.3 491.7 136.7 503.3 163.8 501.5C191 499.7 218 484.3 245.2 482C272.3 479.7 299.7 490.3 327 494.8C354.3 499.3 381.7 497.7 409 494C436.3 490.3 463.7 484.7 491 480.2C518.3 475.7 545.7 472.3 573 475.2C600.3 478 627.7 487 654.8 488.2C682 489.3 709 482.7 736.2 478.8C763.3 475 790.7 474 818 474.3C845.3 474.7 872.7 476.3 886.3 477.2L900 478L900 601L886.3 601C872.7 601 845.3 601 818 601C790.7 601 763.3 601 736.2 601C709 601 682 601 654.8 601C627.7 601 600.3 601 573 601C545.7 601 518.3 601 491 601C463.7 601 436.3 601 409 601C381.7 601 354.3 601 327 601C299.7 601 272.3 601 245.2 601C218 601 191 601 163.8 601C136.7 601 109.3 601 82 601C54.7 601 27.3 601 13.7 601L0 601Z" fill="#fbc1de"></path><path d="M0 494L13.7 493.3C27.3 492.7 54.7 491.3 82 491.7C109.3 492 136.7 494 163.8 495.7C191 497.3 218 498.7 245.2 502.8C272.3 507 299.7 514 327 514C354.3 514 381.7 507 409 506.3C436.3 505.7 463.7 511.3 491 509.7C518.3 508 545.7 499 573 497C600.3 495 627.7 500 654.8 502.7C682 505.3 709 505.7 736.2 506.2C763.3 506.7 790.7 507.3 818 505.7C845.3 504 872.7 500 886.3 498L900 496L900 601L886.3 601C872.7 601 845.3 601 818 601C790.7 601 763.3 601 736.2 601C709 601 682 601 654.8 601C627.7 601 600.3 601 573 601C545.7 601 518.3 601 491 601C463.7 601 436.3 601 409 601C381.7 601 354.3 601 327 601C299.7 601 272.3 601 245.2 601C218 601 191 601 163.8 601C136.7 601 109.3 601 82 601C54.7 601 27.3 601 13.7 601L0 601Z" fill="#ffb8c9"></path><path d="M0 528L13.7 530.2C27.3 532.3 54.7 536.7 82 535.5C109.3 534.3 136.7 527.7 163.8 524.2C191 520.7 218 520.3 245.2 523.3C272.3 526.3 299.7 532.7 327 535.5C354.3 538.3 381.7 537.7 409 538.2C436.3 538.7 463.7 540.3 491 539.5C518.3 538.7 545.7 535.3 573 532.3C600.3 529.3 627.7 526.7 654.8 523.7C682 520.7 709 517.3 736.2 514.5C763.3 511.7 790.7 509.3 818 508.8C845.3 508.3 872.7 509.7 886.3 510.3L900 511L900 601L886.3 601C872.7 601 845.3 601 818 601C790.7 601 763.3 601 736.2 601C709 601 682 601 654.8 601C627.7 601 600.3 601 573 601C545.7 601 518.3 601 491 601C463.7 601 436.3 601 409 601C381.7 601 354.3 601 327 601C299.7 601 272.3 601 245.2 601C218 601 191 601 163.8 601C136.7 601 109.3 601 82 601C54.7 601 27.3 601 13.7 601L0 601Z" fill="#ffb2b2"></path><path d="M0 536L13.7 536.2C27.3 536.3 54.7 536.7 82 536C109.3 535.3 136.7 533.7 163.8 533.7C191 533.7 218 535.3 245.2 535.8C272.3 536.3 299.7 535.7 327 535.5C354.3 535.3 381.7 535.7 409 536.5C436.3 537.3 463.7 538.7 491 538C518.3 537.3 545.7 534.7 573 533.7C600.3 532.7 627.7 533.3 654.8 536.7C682 540 709 546 736.2 547.7C763.3 549.3 790.7 546.7 818 545.5C845.3 544.3 872.7 544.7 886.3 544.8L900 545L900 601L886.3 601C872.7 601 845.3 601 818 601C790.7 601 763.3 601 736.2 601C709 601 682 601 654.8 601C627.7 601 600.3 601 573 601C545.7 601 518.3 601 491 601C463.7 601 436.3 601 409 601C381.7 601 354.3 601 327 601C299.7 601 272.3 601 245.2 601C218 601 191 601 163.8 601C136.7 601 109.3 601 82 601C54.7 601 27.3 601 13.7 601L0 601Z" fill="#ffb097"></path><path d="M0 547L13.7 549.7C27.3 552.3 54.7 557.7 82 559.7C109.3 561.7 136.7 560.3 163.8 559.8C191 559.3 218 559.7 245.2 558C272.3 556.3 299.7 552.7 327 553.2C354.3 553.7 381.7 558.3 409 560.8C436.3 563.3 463.7 563.7 491 561.8C518.3 560 545.7 556 573 556.3C600.3 556.7 627.7 561.3 654.8 563.2C682 565 709 564 736.2 560.8C763.3 557.7 790.7 552.3 818 551.3C845.3 550.3 872.7 553.7 886.3 555.3L900 557L900 601L886.3 601C872.7 601 845.3 601 818 601C790.7 601 763.3 601 736.2 601C709 601 682 601 654.8 601C627.7 601 600.3 601 573 601C545.7 601 518.3 601 491 601C463.7 601 436.3 601 409 601C381.7 601 354.3 601 327 601C299.7 601 272.3 601 245.2 601C218 601 191 601 163.8 601C136.7 601 109.3 601 82 601C54.7 601 27.3 601 13.7 601L0 601Z" fill="#feb27b"></path><path d="M0 569L13.7 570.8C27.3 572.7 54.7 576.3 82 577.7C109.3 579 136.7 578 163.8 577.5C191 577 218 577 245.2 576.3C272.3 575.7 299.7 574.3 327 572.5C354.3 570.7 381.7 568.3 409 567.5C436.3 566.7 463.7 567.3 491 568.5C518.3 569.7 545.7 571.3 573 572.5C600.3 573.7 627.7 574.3 654.8 573.7C682 573 709 571 736.2 569.5C763.3 568 790.7 567 818 568.8C845.3 570.7 872.7 575.3 886.3 577.7L900 580L900 601L886.3 601C872.7 601 845.3 601 818 601C790.7 601 763.3 601 736.2 601C709 601 682 601 654.8 601C627.7 601 600.3 601 573 601C545.7 601 518.3 601 491 601C463.7 601 436.3 601 409 601C381.7 601 354.3 601 327 601C299.7 601 272.3 601 245.2 601C218 601 191 601 163.8 601C136.7 601 109.3 601 82 601C54.7 601 27.3 601 13.7 601L0 601Z" fill="#ebb861"></path></svg>