<svg id="visual" viewBox="0 0 900 600" width="900" height="600" xmlns="http://www.w3.org/2000/svg" xmlns:xlink="http://www.w3.org/1999/xlink" version="1.1"><rect x="0" y="0" width="900" height="600" fill="#EEEBE5"></rect><path d="M685 600L691.8 590.8C698.7 581.7 712.3 563.3 709.5 545.2C706.7 527 687.3 509 682.3 490.8C677.3 472.7 686.7 454.3 689.8 436.2C693 418 690 400 692.3 381.8C694.7 363.7 702.3 345.3 708.3 327.2C714.3 309 718.7 291 712 272.8C705.3 254.7 687.7 236.3 685 218.2C682.3 200 694.7 182 697.3 163.8C700 145.7 693 127.3 688.5 109.2C684 91 682 73 676.8 54.8C671.7 36.7 663.3 18.3 659.2 9.2L655 0L900 0L900 9.2C900 18.3 900 36.7 900 54.8C900 73 900 91 900 109.2C900 127.3 900 145.7 900 163.8C900 182 900 200 900 218.2C900 236.3 900 254.7 900 272.8C900 291 900 309 900 327.2C900 345.3 900 363.7 900 381.8C900 400 900 418 900 436.2C900 454.3 900 472.7 900 490.8C900 509 900 527 900 545.2C900 563.3 900 581.7 900 590.8L900 600Z" fill="#e9d5fd"></path><path d="M747 600L750.3 590.8C753.7 581.7 760.3 563.3 756.7 545.2C753 527 739 509 736.8 490.8C734.7 472.7 744.3 454.3 741.5 436.2C738.7 418 723.3 400 725.8 381.8C728.3 363.7 748.7 345.3 758.8 327.2C769 309 769 291 759.8 272.8C750.7 254.7 732.3 236.3 726.7 218.2C721 200 728 182 726.8 163.8C725.7 145.7 716.3 127.3 720 109.2C723.7 91 740.3 73 748.3 54.8C756.3 36.7 755.7 18.3 755.3 9.2L755 0L900 0L900 9.2C900 18.3 900 36.7 900 54.8C900 73 900 91 900 109.2C900 127.3 900 145.7 900 163.8C900 182 900 200 900 218.2C900 236.3 900 254.7 900 272.8C900 291 900 309 900 327.2C900 345.3 900 363.7 900 381.8C900 400 900 418 900 436.2C900 454.3 900 472.7 900 490.8C900 509 900 527 900 545.2C900 563.3 900 581.7 900 590.8L900 600Z" fill="#f9c3e3"></path><path d="M763 600L759.7 590.8C756.3 581.7 749.7 563.3 747 545.2C744.3 527 745.7 509 749.5 490.8C753.3 472.7 759.7 454.3 758.2 436.2C756.7 418 747.3 400 748.5 381.8C749.7 363.7 761.3 345.3 769.3 327.2C777.3 309 781.7 291 780.3 272.8C779 254.7 772 236.3 773.5 218.2C775 200 785 182 788.2 163.8C791.3 145.7 787.7 127.3 781.3 109.2C775 91 766 73 759.8 54.8C753.7 36.7 750.3 18.3 748.7 9.2L747 0L900 0L900 9.2C900 18.3 900 36.7 900 54.8C900 73 900 91 900 109.2C900 127.3 900 145.7 900 163.8C900 182 900 200 900 218.2C900 236.3 900 254.7 900 272.8C900 291 900 309 900 327.2C900 345.3 900 363.7 900 381.8C900 400 900 418 900 436.2C900 454.3 900 472.7 900 490.8C900 509 900 527 900 545.2C900 563.3 900 581.7 900 590.8L900 600Z" fill="#ffb5be"></path><path d="M799 600L798.7 590.8C798.3 581.7 797.7 563.3 801.3 545.2C805 527 813 509 813.8 490.8C814.7 472.7 808.3 454.3 806.8 436.2C805.3 418 808.7 400 807.2 381.8C805.7 363.7 799.3 345.3 794 327.2C788.7 309 784.3 291 785.2 272.8C786 254.7 792 236.3 796.8 218.2C801.7 200 805.3 182 806.7 163.8C808 145.7 807 127.3 808.2 109.2C809.3 91 812.7 73 811.5 54.8C810.3 36.7 804.7 18.3 801.8 9.2L799 0L900 0L900 9.2C900 18.3 900 36.7 900 54.8C900 73 900 91 900 109.2C900 127.3 900 145.7 900 163.8C900 182 900 200 900 218.2C900 236.3 900 254.7 900 272.8C900 291 900 309 900 327.2C900 345.3 900 363.7 900 381.8C900 400 900 418 900 436.2C900 454.3 900 472.7 900 490.8C900 509 900 527 900 545.2C900 563.3 900 581.7 900 590.8L900 600Z" fill="#ffb090"></path><path d="M849 600L849.7 590.8C850.3 581.7 851.7 563.3 850.5 545.2C849.3 527 845.7 509 843.5 490.8C841.3 472.7 840.7 454.3 843.2 436.2C845.7 418 851.3 400 849.5 381.8C847.7 363.7 838.3 345.3 837 327.2C835.7 309 842.3 291 844.7 272.8C847 254.7 845 236.3 843.8 218.2C842.7 200 842.3 182 844.7 163.8C847 145.7 852 127.3 854.3 109.2C856.7 91 856.3 73 853.8 54.8C851.3 36.7 846.7 18.3 844.3 9.2L842 0L900 0L900 9.2C900 18.3 900 36.7 900 54.8C900 73 900 91 900 109.2C900 127.3 900 145.7 900 163.8C900 182 900 200 900 218.2C900 236.3 900 254.7 900 272.8C900 291 900 309 900 327.2C900 345.3 900 363.7 900 381.8C900 400 900 418 900 436.2C900 454.3 900 472.7 900 490.8C900 509 900 527 900 545.2C900 563.3 900 581.7 900 590.8L900 600Z" fill="#ebb861"></path></svg>