<svg id="visual" viewBox="0 0 900 600" width="900" height="600" xmlns="http://www.w3.org/2000/svg" xmlns:xlink="http://www.w3.org/1999/xlink" version="1.1"><rect x="0" y="0" width="900" height="600" fill="#EEEBE5"></rect><path d="M390 0L366.2 14.3C342.3 28.7 294.7 57.3 290.3 85.8C286 114.3 325 142.7 348.3 171.2C371.7 199.7 379.3 228.3 360.8 257C342.3 285.7 297.7 314.3 287.3 343C277 371.7 301 400.3 309.8 428.8C318.7 457.3 312.3 485.7 316.5 514.2C320.7 542.7 335.3 571.3 342.7 585.7L350 600L0 600L0 585.7C0 571.3 0 542.7 0 514.2C0 485.7 0 457.3 0 428.8C0 400.3 0 371.7 0 343C0 314.3 0 285.7 0 257C0 228.3 0 199.7 0 171.2C0 142.7 0 114.3 0 85.8C0 57.3 0 28.7 0 14.3L0 0Z" fill="#e9d5fd"></path><path d="M285 0L277.8 14.3C270.7 28.7 256.3 57.3 243.3 85.8C230.3 114.3 218.7 142.7 214.2 171.2C209.7 199.7 212.3 228.3 215.8 257C219.3 285.7 223.7 314.3 232.8 343C242 371.7 256 400.3 263.7 428.8C271.3 457.3 272.7 485.7 262.8 514.2C253 542.7 232 571.3 221.5 585.7L211 600L0 600L0 585.7C0 571.3 0 542.7 0 514.2C0 485.7 0 457.3 0 428.8C0 400.3 0 371.7 0 343C0 314.3 0 285.7 0 257C0 228.3 0 199.7 0 171.2C0 142.7 0 114.3 0 85.8C0 57.3 0 28.7 0 14.3L0 0Z" fill="#f9c3e3"></path><path d="M207 0L196.5 14.3C186 28.7 165 57.3 167.7 85.8C170.3 114.3 196.7 142.7 206.8 171.2C217 199.7 211 228.3 196.8 257C182.7 285.7 160.3 314.3 155.3 343C150.3 371.7 162.7 400.3 176.5 428.8C190.3 457.3 205.7 485.7 201.2 514.2C196.7 542.7 172.3 571.3 160.2 585.7L148 600L0 600L0 585.7C0 571.3 0 542.7 0 514.2C0 485.7 0 457.3 0 428.8C0 400.3 0 371.7 0 343C0 314.3 0 285.7 0 257C0 228.3 0 199.7 0 171.2C0 142.7 0 114.3 0 85.8C0 57.3 0 28.7 0 14.3L0 0Z" fill="#ffb5be"></path><path d="M179 0L165.3 14.3C151.7 28.7 124.3 57.3 110.7 85.8C97 114.3 97 142.7 107.5 171.2C118 199.7 139 228.3 153.7 257C168.3 285.7 176.7 314.3 168.3 343C160 371.7 135 400.3 120.8 428.8C106.7 457.3 103.3 485.7 109.3 514.2C115.3 542.7 130.7 571.3 138.3 585.7L146 600L0 600L0 585.7C0 571.3 0 542.7 0 514.2C0 485.7 0 457.3 0 428.8C0 400.3 0 371.7 0 343C0 314.3 0 285.7 0 257C0 228.3 0 199.7 0 171.2C0 142.7 0 114.3 0 85.8C0 57.3 0 28.7 0 14.3L0 0Z" fill="#ffb090"></path><path d="M105 0L99.5 14.3C94 28.7 83 57.3 72.7 85.8C62.3 114.3 52.7 142.7 53 171.2C53.3 199.7 63.7 228.3 75 257C86.3 285.7 98.7 314.3 106.3 343C114 371.7 117 400.3 107.3 428.8C97.7 457.3 75.3 485.7 69.7 514.2C64 542.7 75 571.3 80.5 585.7L86 600L0 600L0 585.7C0 571.3 0 542.7 0 514.2C0 485.7 0 457.3 0 428.8C0 400.3 0 371.7 0 343C0 314.3 0 285.7 0 257C0 228.3 0 199.7 0 171.2C0 142.7 0 114.3 0 85.8C0 57.3 0 28.7 0 14.3L0 0Z" fill="#ebb861"></path></svg>