<svg id="visual" viewBox="0 0 900 600" width="900" height="600" xmlns="http://www.w3.org/2000/svg" xmlns:xlink="http://www.w3.org/1999/xlink" version="1.1"><rect x="0" y="0" width="900" height="600" fill="#EEEBE5"></rect><path d="M0 455L13.7 459.5C27.3 464 54.7 473 82 471C109.3 469 136.7 456 163.8 452.7C191 449.3 218 455.7 245.2 457.8C272.3 460 299.7 458 327 459.7C354.3 461.3 381.7 466.7 409 470.7C436.3 474.7 463.7 477.3 491 472.8C518.3 468.3 545.7 456.7 573 455C600.3 453.3 627.7 461.7 654.8 463.5C682 465.3 709 460.7 736.2 457.7C763.3 454.7 790.7 453.3 818 449.8C845.3 446.3 872.7 440.7 886.3 437.8L900 435L900 601L886.3 601C872.7 601 845.3 601 818 601C790.7 601 763.3 601 736.2 601C709 601 682 601 654.8 601C627.7 601 600.3 601 573 601C545.7 601 518.3 601 491 601C463.7 601 436.3 601 409 601C381.7 601 354.3 601 327 601C299.7 601 272.3 601 245.2 601C218 601 191 601 163.8 601C136.7 601 109.3 601 82 601C54.7 601 27.3 601 13.7 601L0 601Z" fill="#e9d5fd"></path><path d="M0 496L13.7 498.2C27.3 500.3 54.7 504.7 82 502.2C109.3 499.7 136.7 490.3 163.8 489C191 487.7 218 494.3 245.2 492.5C272.3 490.7 299.7 480.3 327 482C354.3 483.7 381.7 497.3 409 504.2C436.3 511 463.7 511 491 504.8C518.3 498.7 545.7 486.3 573 482.5C600.3 478.7 627.7 483.3 654.8 482.5C682 481.7 709 475.3 736.2 477.8C763.3 480.3 790.7 491.7 818 497.2C845.3 502.7 872.7 502.3 886.3 502.2L900 502L900 601L886.3 601C872.7 601 845.3 601 818 601C790.7 601 763.3 601 736.2 601C709 601 682 601 654.8 601C627.7 601 600.3 601 573 601C545.7 601 518.3 601 491 601C463.7 601 436.3 601 409 601C381.7 601 354.3 601 327 601C299.7 601 272.3 601 245.2 601C218 601 191 601 163.8 601C136.7 601 109.3 601 82 601C54.7 601 27.3 601 13.7 601L0 601Z" fill="#f9c3e3"></path><path d="M0 507L13.7 504.8C27.3 502.7 54.7 498.3 82 496.5C109.3 494.7 136.7 495.3 163.8 497.8C191 500.3 218 504.7 245.2 503.8C272.3 503 299.7 497 327 497.8C354.3 498.7 381.7 506.3 409 511.5C436.3 516.7 463.7 519.3 491 518.3C518.3 517.3 545.7 512.7 573 513.8C600.3 515 627.7 522 654.8 524.2C682 526.3 709 523.7 736.2 519.3C763.3 515 790.7 509 818 504.8C845.3 500.7 872.7 498.3 886.3 497.2L900 496L900 601L886.3 601C872.7 601 845.3 601 818 601C790.7 601 763.3 601 736.2 601C709 601 682 601 654.8 601C627.7 601 600.3 601 573 601C545.7 601 518.3 601 491 601C463.7 601 436.3 601 409 601C381.7 601 354.3 601 327 601C299.7 601 272.3 601 245.2 601C218 601 191 601 163.8 601C136.7 601 109.3 601 82 601C54.7 601 27.3 601 13.7 601L0 601Z" fill="#ffb5be"></path><path d="M0 531L13.7 530.8C27.3 530.7 54.7 530.3 82 532.8C109.3 535.3 136.7 540.7 163.8 541.2C191 541.7 218 537.3 245.2 536.2C272.3 535 299.7 537 327 536C354.3 535 381.7 531 409 527.5C436.3 524 463.7 521 491 521.7C518.3 522.3 545.7 526.7 573 530C600.3 533.3 627.7 535.7 654.8 536.5C682 537.3 709 536.7 736.2 537.3C763.3 538 790.7 540 818 539.2C845.3 538.3 872.7 534.7 886.3 532.8L900 531L900 601L886.3 601C872.7 601 845.3 601 818 601C790.7 601 763.3 601 736.2 601C709 601 682 601 654.8 601C627.7 601 600.3 601 573 601C545.7 601 518.3 601 491 601C463.7 601 436.3 601 409 601C381.7 601 354.3 601 327 601C299.7 601 272.3 601 245.2 601C218 601 191 601 163.8 601C136.7 601 109.3 601 82 601C54.7 601 27.3 601 13.7 601L0 601Z" fill="#ffb090"></path><path d="M0 564L13.7 564.5C27.3 565 54.7 566 82 565.3C109.3 564.7 136.7 562.3 163.8 560.8C191 559.3 218 558.7 245.2 560.2C272.3 561.7 299.7 565.3 327 564.2C354.3 563 381.7 557 409 556.3C436.3 555.7 463.7 560.3 491 561.8C518.3 563.3 545.7 561.7 573 560.7C600.3 559.7 627.7 559.3 654.8 561C682 562.7 709 566.3 736.2 568C763.3 569.7 790.7 569.3 818 567.7C845.3 566 872.7 563 886.3 561.5L900 560L900 601L886.3 601C872.7 601 845.3 601 818 601C790.7 601 763.3 601 736.2 601C709 601 682 601 654.8 601C627.7 601 600.3 601 573 601C545.7 601 518.3 601 491 601C463.7 601 436.3 601 409 601C381.7 601 354.3 601 327 601C299.7 601 272.3 601 245.2 601C218 601 191 601 163.8 601C136.7 601 109.3 601 82 601C54.7 601 27.3 601 13.7 601L0 601Z" fill="#ebb861"></path></svg>