<svg id="visual" viewBox="0 0 900 600" width="900" height="600" xmlns="http://www.w3.org/2000/svg" xmlns:xlink="http://www.w3.org/1999/xlink" version="1.1"><rect x="0" y="0" width="900" height="600" fill="#EEEBE5"></rect><path d="M217 0L209.8 9.2C202.7 18.3 188.3 36.7 191.2 54.8C194 73 214 91 215.2 109.2C216.3 127.3 198.7 145.7 194.3 163.8C190 182 199 200 200.5 218.2C202 236.3 196 254.7 193.5 272.8C191 291 192 309 198.8 327.2C205.7 345.3 218.3 363.7 217.7 381.8C217 400 203 418 193.2 436.2C183.3 454.3 177.7 472.7 180.3 490.8C183 509 194 527 198.3 545.2C202.7 563.3 200.3 581.7 199.2 590.8L198 600L0 600L0 590.8C0 581.7 0 563.3 0 545.2C0 527 0 509 0 490.8C0 472.7 0 454.3 0 436.2C0 418 0 400 0 381.8C0 363.7 0 345.3 0 327.2C0 309 0 291 0 272.8C0 254.7 0 236.3 0 218.2C0 200 0 182 0 163.8C0 145.7 0 127.3 0 109.2C0 91 0 73 0 54.8C0 36.7 0 18.3 0 9.2L0 0Z" fill="#e9d5fd"></path><path d="M190 0L191.5 9.2C193 18.3 196 36.7 197.8 54.8C199.7 73 200.3 91 191.7 109.2C183 127.3 165 145.7 164.8 163.8C164.7 182 182.3 200 182.3 218.2C182.3 236.3 164.7 254.7 155.7 272.8C146.7 291 146.3 309 158.3 327.2C170.3 345.3 194.7 363.7 201 381.8C207.3 400 195.7 418 192.7 436.2C189.7 454.3 195.3 472.7 194.3 490.8C193.3 509 185.7 527 189.3 545.2C193 563.3 208 581.7 215.5 590.8L223 600L0 600L0 590.8C0 581.7 0 563.3 0 545.2C0 527 0 509 0 490.8C0 472.7 0 454.3 0 436.2C0 418 0 400 0 381.8C0 363.7 0 345.3 0 327.2C0 309 0 291 0 272.8C0 254.7 0 236.3 0 218.2C0 200 0 182 0 163.8C0 145.7 0 127.3 0 109.2C0 91 0 73 0 54.8C0 36.7 0 18.3 0 9.2L0 0Z" fill="#f3cbef"></path><path d="M164 0L166.7 9.2C169.3 18.3 174.7 36.7 168.5 54.8C162.3 73 144.7 91 147.5 109.2C150.3 127.3 173.7 145.7 177.2 163.8C180.7 182 164.3 200 157.3 218.2C150.3 236.3 152.7 254.7 158.2 272.8C163.7 291 172.3 309 179 327.2C185.7 345.3 190.3 363.7 186 381.8C181.7 400 168.3 418 166.8 436.2C165.3 454.3 175.7 472.7 181.5 490.8C187.3 509 188.7 527 188.2 545.2C187.7 563.3 185.3 581.7 184.2 590.8L183 600L0 600L0 590.8C0 581.7 0 563.3 0 545.2C0 527 0 509 0 490.8C0 472.7 0 454.3 0 436.2C0 418 0 400 0 381.8C0 363.7 0 345.3 0 327.2C0 309 0 291 0 272.8C0 254.7 0 236.3 0 218.2C0 200 0 182 0 163.8C0 145.7 0 127.3 0 109.2C0 91 0 73 0 54.8C0 36.7 0 18.3 0 9.2L0 0Z" fill="#fbc1de"></path><path d="M158 0L159 9.2C160 18.3 162 36.7 161.7 54.8C161.3 73 158.7 91 156.3 109.2C154 127.3 152 145.7 145.7 163.8C139.3 182 128.7 200 128.5 218.2C128.3 236.3 138.7 254.7 139.7 272.8C140.7 291 132.3 309 135 327.2C137.7 345.3 151.3 363.7 154.2 381.8C157 400 149 418 144.8 436.2C140.7 454.3 140.3 472.7 139.8 490.8C139.3 509 138.7 527 141.2 545.2C143.7 563.3 149.3 581.7 152.2 590.8L155 600L0 600L0 590.8C0 581.7 0 563.3 0 545.2C0 527 0 509 0 490.8C0 472.7 0 454.3 0 436.2C0 418 0 400 0 381.8C0 363.7 0 345.3 0 327.2C0 309 0 291 0 272.8C0 254.7 0 236.3 0 218.2C0 200 0 182 0 163.8C0 145.7 0 127.3 0 109.2C0 91 0 73 0 54.8C0 36.7 0 18.3 0 9.2L0 0Z" fill="#ffb8c9"></path><path d="M107 0L103.8 9.2C100.7 18.3 94.3 36.7 96.2 54.8C98 73 108 91 113.3 109.2C118.7 127.3 119.3 145.7 115 163.8C110.7 182 101.3 200 97.2 218.2C93 236.3 94 254.7 93.2 272.8C92.3 291 89.7 309 90.7 327.2C91.7 345.3 96.3 363.7 100.7 381.8C105 400 109 418 113.7 436.2C118.3 454.3 123.7 472.7 128 490.8C132.3 509 135.7 527 136.3 545.2C137 563.3 135 581.7 134 590.8L133 600L0 600L0 590.8C0 581.7 0 563.3 0 545.2C0 527 0 509 0 490.8C0 472.7 0 454.3 0 436.2C0 418 0 400 0 381.8C0 363.7 0 345.3 0 327.2C0 309 0 291 0 272.8C0 254.7 0 236.3 0 218.2C0 200 0 182 0 163.8C0 145.7 0 127.3 0 109.2C0 91 0 73 0 54.8C0 36.7 0 18.3 0 9.2L0 0Z" fill="#ffb2b2"></path><path d="M96 0L95.7 9.2C95.3 18.3 94.7 36.7 95.7 54.8C96.7 73 99.3 91 99.5 109.2C99.7 127.3 97.3 145.7 96.3 163.8C95.3 182 95.7 200 95.8 218.2C96 236.3 96 254.7 94.8 272.8C93.7 291 91.3 309 92.3 327.2C93.3 345.3 97.7 363.7 99.2 381.8C100.7 400 99.3 418 94.2 436.2C89 454.3 80 472.7 77.5 490.8C75 509 79 527 80.8 545.2C82.7 563.3 82.3 581.7 82.2 590.8L82 600L0 600L0 590.8C0 581.7 0 563.3 0 545.2C0 527 0 509 0 490.8C0 472.7 0 454.3 0 436.2C0 418 0 400 0 381.8C0 363.7 0 345.3 0 327.2C0 309 0 291 0 272.8C0 254.7 0 236.3 0 218.2C0 200 0 182 0 163.8C0 145.7 0 127.3 0 109.2C0 91 0 73 0 54.8C0 36.7 0 18.3 0 9.2L0 0Z" fill="#ffb097"></path><path d="M79 0L75.2 9.2C71.3 18.3 63.7 36.7 60.7 54.8C57.7 73 59.3 91 60 109.2C60.7 127.3 60.3 145.7 63 163.8C65.7 182 71.3 200 70.7 218.2C70 236.3 63 254.7 59.2 272.8C55.3 291 54.7 309 57.2 327.2C59.7 345.3 65.3 363.7 64.7 381.8C64 400 57 418 54.5 436.2C52 454.3 54 472.7 58.8 490.8C63.7 509 71.3 527 72.7 545.2C74 563.3 69 581.7 66.5 590.8L64 600L0 600L0 590.8C0 581.7 0 563.3 0 545.2C0 527 0 509 0 490.8C0 472.7 0 454.3 0 436.2C0 418 0 400 0 381.8C0 363.7 0 345.3 0 327.2C0 309 0 291 0 272.8C0 254.7 0 236.3 0 218.2C0 200 0 182 0 163.8C0 145.7 0 127.3 0 109.2C0 91 0 73 0 54.8C0 36.7 0 18.3 0 9.2L0 0Z" fill="#feb27b"></path><path d="M45 0L42.5 9.2C40 18.3 35 36.7 33 54.8C31 73 32 91 32.7 109.2C33.3 127.3 33.7 145.7 35 163.8C36.3 182 38.7 200 41.5 218.2C44.3 236.3 47.7 254.7 48.8 272.8C50 291 49 309 47.2 327.2C45.3 345.3 42.7 363.7 40.7 381.8C38.7 400 37.3 418 38.3 436.2C39.3 454.3 42.7 472.7 45.2 490.8C47.7 509 49.3 527 46.5 545.2C43.7 563.3 36.3 581.7 32.7 590.8L29 600L0 600L0 590.8C0 581.7 0 563.3 0 545.2C0 527 0 509 0 490.8C0 472.7 0 454.3 0 436.2C0 418 0 400 0 381.8C0 363.7 0 345.3 0 327.2C0 309 0 291 0 272.8C0 254.7 0 236.3 0 218.2C0 200 0 182 0 163.8C0 145.7 0 127.3 0 109.2C0 91 0 73 0 54.8C0 36.7 0 18.3 0 9.2L0 0Z" fill="#ebb861"></path></svg>