<svg id="visual" viewBox="0 0 900 600" width="900" height="600" xmlns="http://www.w3.org/2000/svg" xmlns:xlink="http://www.w3.org/1999/xlink" version="1.1"><rect x="0" y="0" width="900" height="600" fill="#EEEBE5"></rect><path d="M394 0L379.5 10C365 20 336 40 327 60C318 80 329 100 326.8 120C324.7 140 309.3 160 306 180C302.7 200 311.3 220 317.8 240C324.3 260 328.7 280 323.5 300C318.3 320 303.7 340 304.7 360C305.7 380 322.3 400 321.8 420C321.3 440 303.7 460 307 480C310.3 500 334.7 520 341 540C347.3 560 335.7 580 329.8 590L324 600L0 600L0 590C0 580 0 560 0 540C0 520 0 500 0 480C0 460 0 440 0 420C0 400 0 380 0 360C0 340 0 320 0 300C0 280 0 260 0 240C0 220 0 200 0 180C0 160 0 140 0 120C0 100 0 80 0 60C0 40 0 20 0 10L0 0Z" fill="#e9d5fd"></path><path d="M246 0L250.7 10C255.3 20 264.7 40 279.5 60C294.3 80 314.7 100 307.7 120C300.7 140 266.3 160 255.5 180C244.7 200 257.3 220 269.8 240C282.3 260 294.7 280 294.3 300C294 320 281 340 276.2 360C271.3 380 274.7 400 268.5 420C262.3 440 246.7 460 252.8 480C259 500 287 520 302.7 540C318.3 560 321.7 580 323.3 590L325 600L0 600L0 590C0 580 0 560 0 540C0 520 0 500 0 480C0 460 0 440 0 420C0 400 0 380 0 360C0 340 0 320 0 300C0 280 0 260 0 240C0 220 0 200 0 180C0 160 0 140 0 120C0 100 0 80 0 60C0 40 0 20 0 10L0 0Z" fill="#f9c3e3"></path><path d="M189 0L187.5 10C186 20 183 40 183.8 60C184.7 80 189.3 100 198.7 120C208 140 222 160 223.3 180C224.7 200 213.3 220 208.7 240C204 260 206 280 208.3 300C210.7 320 213.3 340 206.8 360C200.3 380 184.7 400 180.8 420C177 440 185 460 187.5 480C190 500 187 520 184.3 540C181.7 560 179.3 580 178.2 590L177 600L0 600L0 590C0 580 0 560 0 540C0 520 0 500 0 480C0 460 0 440 0 420C0 400 0 380 0 360C0 340 0 320 0 300C0 280 0 260 0 240C0 220 0 200 0 180C0 160 0 140 0 120C0 100 0 80 0 60C0 40 0 20 0 10L0 0Z" fill="#ffb5be"></path><path d="M127 0L124.7 10C122.3 20 117.7 40 119.7 60C121.7 80 130.3 100 128.3 120C126.3 140 113.7 160 112.2 180C110.7 200 120.3 220 121.2 240C122 260 114 280 122.8 300C131.7 320 157.3 340 167.7 360C178 380 173 400 164.8 420C156.7 440 145.3 460 136.3 480C127.3 500 120.7 520 114.5 540C108.3 560 102.7 580 99.8 590L97 600L0 600L0 590C0 580 0 560 0 540C0 520 0 500 0 480C0 460 0 440 0 420C0 400 0 380 0 360C0 340 0 320 0 300C0 280 0 260 0 240C0 220 0 200 0 180C0 160 0 140 0 120C0 100 0 80 0 60C0 40 0 20 0 10L0 0Z" fill="#ffb090"></path><path d="M79 0L83 10C87 20 95 40 96.8 60C98.7 80 94.3 100 83.2 120C72 140 54 160 53 180C52 200 68 220 71.7 240C75.3 260 66.7 280 69.8 300C73 320 88 340 93.5 360C99 380 95 400 89.8 420C84.7 440 78.3 460 76.7 480C75 500 78 520 75 540C72 560 63 580 58.5 590L54 600L0 600L0 590C0 580 0 560 0 540C0 520 0 500 0 480C0 460 0 440 0 420C0 400 0 380 0 360C0 340 0 320 0 300C0 280 0 260 0 240C0 220 0 200 0 180C0 160 0 140 0 120C0 100 0 80 0 60C0 40 0 20 0 10L0 0Z" fill="#ebb861"></path></svg>