<svg id="visual" viewBox="0 0 900 600" width="900" height="600" xmlns="http://www.w3.org/2000/svg" xmlns:xlink="http://www.w3.org/1999/xlink" version="1.1"><rect x="0" y="0" width="900" height="600" fill="#EEEBE5"></rect><path d="M702 0L659 14.3C616 28.7 530 57.3 522.2 85.8C514.3 114.3 584.7 142.7 626.8 171.2C669 199.7 683 228.3 649.7 257C616.3 285.7 535.7 314.3 516.8 343C498 371.7 541 400.3 556.7 428.8C572.3 457.3 560.7 485.7 568 514.2C575.3 542.7 601.7 571.3 614.8 585.7L628 600L0 600L0 585.7C0 571.3 0 542.7 0 514.2C0 485.7 0 457.3 0 428.8C0 400.3 0 371.7 0 343C0 314.3 0 285.7 0 257C0 228.3 0 199.7 0 171.2C0 142.7 0 114.3 0 85.8C0 57.3 0 28.7 0 14.3L0 0Z" fill="#e9d5fd"></path><path d="M512 0L499 14.3C486 28.7 460 57.3 436.7 85.8C413.3 114.3 392.7 142.7 384.5 171.2C376.3 199.7 380.7 228.3 387 257C393.3 285.7 401.7 314.3 418.5 343C435.3 371.7 460.7 400.3 474.3 428.8C488 457.3 490 485.7 472.2 514.2C454.3 542.7 416.7 571.3 397.8 585.7L379 600L0 600L0 585.7C0 571.3 0 542.7 0 514.2C0 485.7 0 457.3 0 428.8C0 400.3 0 371.7 0 343C0 314.3 0 285.7 0 257C0 228.3 0 199.7 0 171.2C0 142.7 0 114.3 0 85.8C0 57.3 0 28.7 0 14.3L0 0Z" fill="#f9c3e3"></path><path d="M372 0L353 14.3C334 28.7 296 57.3 300.8 85.8C305.7 114.3 353.3 142.7 371.7 171.2C390 199.7 379 228.3 353.3 257C327.7 285.7 287.3 314.3 278.3 343C269.3 371.7 291.7 400.3 316.5 428.8C341.3 457.3 368.7 485.7 360.7 514.2C352.7 542.7 309.3 571.3 287.7 585.7L266 600L0 600L0 585.7C0 571.3 0 542.7 0 514.2C0 485.7 0 457.3 0 428.8C0 400.3 0 371.7 0 343C0 314.3 0 285.7 0 257C0 228.3 0 199.7 0 171.2C0 142.7 0 114.3 0 85.8C0 57.3 0 28.7 0 14.3L0 0Z" fill="#ffb5be"></path><path d="M322 0L297.2 14.3C272.3 28.7 222.7 57.3 198.2 85.8C173.7 114.3 174.3 142.7 193.3 171.2C212.3 199.7 249.7 228.3 275.7 257C301.7 285.7 316.3 314.3 301.3 343C286.3 371.7 241.7 400.3 216.5 428.8C191.3 457.3 185.7 485.7 196.5 514.2C207.3 542.7 234.7 571.3 248.3 585.7L262 600L0 600L0 585.7C0 571.3 0 542.7 0 514.2C0 485.7 0 457.3 0 428.8C0 400.3 0 371.7 0 343C0 314.3 0 285.7 0 257C0 228.3 0 199.7 0 171.2C0 142.7 0 114.3 0 85.8C0 57.3 0 28.7 0 14.3L0 0Z" fill="#ffb090"></path><path d="M189 0L179 14.3C169 28.7 149 57.3 130.2 85.8C111.3 114.3 93.7 142.7 94.2 171.2C94.7 199.7 113.3 228.3 133.8 257C154.3 285.7 176.7 314.3 190.5 343C204.3 371.7 209.7 400.3 192.3 428.8C175 457.3 135 485.7 124.7 514.2C114.3 542.7 133.7 571.3 143.3 585.7L153 600L0 600L0 585.7C0 571.3 0 542.7 0 514.2C0 485.7 0 457.3 0 428.8C0 400.3 0 371.7 0 343C0 314.3 0 285.7 0 257C0 228.3 0 199.7 0 171.2C0 142.7 0 114.3 0 85.8C0 57.3 0 28.7 0 14.3L0 0Z" fill="#ebb861"></path></svg>